<svg width="64" height="64" viewBox="0 0 64 64" fill="none" xmlns="http://www.w3.org/2000/svg">
<circle cx="32" cy="32" r="26" stroke="#2D2E2F" stroke-width="2" stroke-linecap="square"/>
<path d="M37.5 18H38.5V17H37.5V18ZM37.5 27.5H36.5V28.5H37.5V27.5ZM27.5 18V17H26.5V18H27.5ZM27.5 27.5V28.5H28.5V27.5H27.5ZM18 27.5V26.5H17V27.5H18ZM18 37.5H17V38.5H18V37.5ZM27.5 37.5H28.5V36.5H27.5V37.5ZM27.5 47H26.5V48H27.5V47ZM37.5 47V48H38.5V47H37.5ZM37.5 37.5V36.5H36.5V37.5H37.5ZM47 37.5V38.5H48V37.5H47ZM47 27.5H48V26.5H47V27.5ZM36.5 18V27.5H38.5V18H36.5ZM27.5 19H37.5V17H27.5V19ZM28.5 27.5V18H26.5V27.5H28.5ZM18 28.5H27.5V26.5H18V28.5ZM19 37.5V27.5H17V37.5H19ZM27.5 36.5H18V38.5H27.5V36.5ZM28.5 47V37.5H26.5V47H28.5ZM37.5 46H27.5V48H37.5V46ZM36.5 37.5V47H38.5V37.5H36.5ZM47 36.5H37.5V38.5H47V36.5ZM46 27.5V37.5H48V27.5H46ZM37.5 28.5H47V26.5H37.5V28.5Z" fill="#FA4616"/>
</svg>
