<svg width="64" height="64" viewBox="0 0 64 64" fill="none" xmlns="http://www.w3.org/2000/svg">
<path fill-rule="evenodd" clip-rule="evenodd" d="M20.9991 34H22.9995C22.9998 33.9763 23 33.9524 23 33.9286C23 33.9524 23.0002 33.9763 23.0005 34H25.0009C25.0003 33.9762 25 33.9524 25 33.9286C25 32.8083 25.6508 31.6898 26.9146 30.8096C28.1749 29.9319 29.9698 29.3572 32 29.3572C34.0302 29.3572 35.8251 29.9319 37.0854 30.8096C38.3492 31.6898 39 32.8083 39 33.9286C39 33.9524 38.9997 33.9762 38.9991 34H40.9995C40.9998 33.9763 41 33.9524 41 33.9286C41 33.9524 41.0002 33.9763 41.0005 34H43.0009C43.0003 33.9762 43 33.9524 43 33.9286C43 32.8083 43.6508 31.6898 44.9146 30.8096C46.1749 29.9319 47.9698 29.3572 50 29.3572C51.9674 29.3572 53.7152 29.897 54.9691 30.7305C56.21 31.5554 56.8955 32.6094 56.9888 33.6717C56.9851 33.7814 56.9806 33.8908 56.9751 34H58.9995C58.9998 33.9762 59 33.9524 59 33.9286C59 33.8288 58.997 33.7294 58.991 33.6305C58.997 33.421 59 33.2108 59 33C59 19.5233 46.8021 8.78572 32 8.78572C17.1979 8.78572 5 19.5233 5 33C5 33.2108 5.003 33.4209 5.00898 33.6305C5.00301 33.7294 5 33.8288 5 33.9286C5 33.9524 5.00017 33.9762 5.00051 34H7.02487C7.01943 33.8908 7.01487 33.7814 7.01121 33.6717C7.10448 32.6094 7.78999 31.5553 9.03089 30.7305C10.2848 29.897 12.0326 29.3572 14 29.3572C16.0302 29.3572 17.8251 29.9319 19.0854 30.8096C20.3492 31.6898 21 32.8083 21 33.9286C21 33.9524 20.9997 33.9762 20.9991 34ZM41 33.9286C41 31.9719 39.86 30.3047 38.2283 29.1684C36.5932 28.0296 34.3881 27.3572 32 27.3572C29.6119 27.3572 27.4068 28.0296 25.7717 29.1684C24.14 30.3047 23 31.9719 23 33.9286C23 31.9719 21.86 30.3047 20.2283 29.1684C18.5932 28.0296 16.3881 27.3572 14 27.3572C11.6841 27.3572 9.54163 27.9895 7.92375 29.0649C7.70987 29.2071 7.50383 29.3581 7.30702 29.5174C9.18304 18.975 19.437 10.7857 32 10.7857C44.563 10.7857 54.817 18.975 56.693 29.5174C56.4962 29.3581 56.2901 29.2071 56.0762 29.0649C54.4584 27.9895 52.3159 27.3572 50 27.3572C47.6119 27.3572 45.4068 28.0296 43.7717 29.1684C42.14 30.3047 41 31.9719 41 33.9286Z" fill="#2D2E2F"/>
<path d="M31.5 7.27857V9.50715" stroke="#2D2E2F" stroke-width="2" stroke-linecap="square"/>
<path d="M32 35V53.2273C32 55.8632 29.7614 58 27 58C24.2386 58 22 55.8632 22 53.2273" stroke="#FA4616" stroke-width="2" stroke-linejoin="round"/>
</svg>
